<svg xmlns="http://www.w3.org/2000/svg" xmlns:xlink="http://www.w3.org/1999/xlink" width="50" zoomAndPan="magnify" viewBox="0 0 37.5 37.499999" height="50" preserveAspectRatio="xMidYMid meet" version="1.0"><defs><clipPath id="id1"><path d="M 0 0 L 37.007812 0 L 37.007812 37.007812 L 0 37.007812 Z M 0 0 " clip-rule="nonzero"/></clipPath></defs><g clip-path="url(#id1)"><path fill="#ffffff" d="M 26.894531 37.5 L 10.605469 37.5 C 4.757812 37.5 0 32.742188 0 26.894531 L 0 10.605469 C 0 4.757812 4.757812 0 10.605469 0 L 26.894531 0 C 32.742188 0 37.5 4.757812 37.5 10.605469 L 37.5 26.894531 C 37.5 32.742188 32.742188 37.5 26.894531 37.5 Z M 10.605469 1.441406 C 5.550781 1.441406 1.441406 5.550781 1.441406 10.605469 L 1.441406 26.894531 C 1.441406 31.949219 5.550781 36.058594 10.605469 36.058594 L 26.894531 36.058594 C 31.949219 36.058594 36.058594 31.949219 36.058594 26.894531 L 36.058594 10.605469 C 36.058594 5.550781 31.949219 1.441406 26.894531 1.441406 Z M 27.835938 18.027344 L 19.472656 18.027344 L 19.472656 9.664062 C 19.472656 9.265625 19.148438 8.941406 18.75 8.941406 C 18.351562 8.941406 18.027344 9.265625 18.027344 9.664062 L 18.027344 18.027344 L 9.664062 18.027344 C 9.265625 18.027344 8.941406 18.351562 8.941406 18.75 C 8.941406 19.148438 9.265625 19.472656 9.664062 19.472656 L 18.027344 19.472656 L 18.027344 27.835938 C 18.027344 28.234375 18.351562 28.558594 18.75 28.558594 C 19.148438 28.558594 19.472656 28.234375 19.472656 27.835938 L 19.472656 19.472656 L 27.835938 19.472656 C 28.234375 19.472656 28.558594 19.148438 28.558594 18.75 C 28.558594 18.351562 28.234375 18.027344 27.835938 18.027344 Z M 27.835938 18.027344 " fill-opacity="1" fill-rule="nonzero"/></g></svg>