<svg xmlns="http://www.w3.org/2000/svg" xmlns:xlink="http://www.w3.org/1999/xlink" width="50" zoomAndPan="magnify" viewBox="0 0 37.5 37.499999" height="50" preserveAspectRatio="xMidYMid meet" version="1.0"><defs><clipPath id="id1"><path d="M 0 0 L 37.007812 0 L 37.007812 37.007812 L 0 37.007812 Z M 0 0 " clip-rule="nonzero"/></clipPath></defs><g clip-path="url(#id1)"><path fill="#ffffff" d="M 18.75 37.5 C 13.742188 37.5 9.03125 35.550781 5.492188 32.007812 C 1.949219 28.46875 0 23.757812 0 18.75 C 0 13.742188 1.949219 9.03125 5.492188 5.492188 C 9.03125 1.949219 13.742188 0 18.75 0 C 23.757812 0 28.46875 1.949219 32.007812 5.492188 C 35.550781 9.03125 37.5 13.742188 37.5 18.75 C 37.5 23.757812 35.550781 28.46875 32.007812 32.007812 C 28.46875 35.550781 23.757812 37.5 18.75 37.5 Z M 18.75 1.164062 C 14.050781 1.164062 9.636719 2.992188 6.316406 6.316406 C 2.992188 9.636719 1.164062 14.050781 1.164062 18.75 C 1.164062 23.449219 2.992188 27.863281 6.316406 31.183594 C 9.636719 34.507812 14.050781 36.335938 18.75 36.335938 C 23.449219 36.335938 27.863281 34.507812 31.183594 31.183594 C 34.507812 27.863281 36.335938 23.449219 36.335938 18.75 C 36.335938 14.050781 34.507812 9.636719 31.183594 6.316406 C 27.863281 2.992188 23.449219 1.164062 18.75 1.164062 Z M 29.546875 7.953125 C 29.355469 7.757812 29.050781 7.726562 28.820312 7.875 L 16.234375 16.0625 C 16.234375 16.0625 16.234375 16.066406 16.234375 16.066406 C 16.21875 16.074219 16.203125 16.085938 16.1875 16.097656 C 16.1875 16.097656 16.1875 16.101562 16.183594 16.101562 C 16.171875 16.109375 16.160156 16.121094 16.148438 16.132812 C 16.144531 16.136719 16.136719 16.144531 16.132812 16.148438 C 16.121094 16.160156 16.109375 16.171875 16.101562 16.183594 C 16.101562 16.1875 16.097656 16.1875 16.097656 16.1875 C 16.085938 16.203125 16.074219 16.21875 16.066406 16.234375 C 16.0625 16.234375 16.0625 16.234375 16.0625 16.234375 L 7.875 28.820312 C 7.726562 29.050781 7.757812 29.355469 7.953125 29.546875 C 8.0625 29.660156 8.214844 29.71875 8.363281 29.71875 C 8.472656 29.71875 8.582031 29.6875 8.679688 29.625 L 21.265625 21.4375 C 21.265625 21.4375 21.265625 21.4375 21.265625 21.433594 C 21.296875 21.414062 21.332031 21.386719 21.359375 21.359375 C 21.386719 21.332031 21.414062 21.296875 21.4375 21.265625 L 29.625 8.679688 C 29.773438 8.449219 29.742188 8.144531 29.546875 7.953125 Z M 20.851562 20.027344 L 17.472656 16.648438 L 27.148438 10.351562 Z M 20.851562 20.027344 " fill-opacity="1" fill-rule="nonzero"/></g></svg>