<svg xmlns="http://www.w3.org/2000/svg" xmlns:xlink="http://www.w3.org/1999/xlink" width="50" zoomAndPan="magnify" viewBox="0 0 37.5 37.499999" height="50" preserveAspectRatio="xMidYMid meet" version="1.0"><defs><clipPath id="id1"><path d="M 0 1.875 L 37.007812 1.875 L 37.007812 35.625 L 0 35.625 Z M 0 1.875 " clip-rule="nonzero"/></clipPath></defs><g clip-path="url(#id1)"><path fill="#ffffff" d="M 18.835938 35.613281 L 18.429688 35.339844 C 18.382812 35.308594 13.722656 32.140625 9.132812 27.761719 C 6.425781 25.171875 4.261719 22.675781 2.699219 20.328125 C 0.71875 17.328125 -0.289062 14.550781 -0.289062 12.082031 C -0.289062 6.464844 4.308594 1.886719 9.953125 1.886719 C 12.046875 1.886719 14.074219 2.527344 15.804688 3.746094 C 17.058594 4.628906 18.085938 5.753906 18.835938 7.050781 C 19.582031 5.746094 20.609375 4.621094 21.863281 3.746094 C 23.59375 2.527344 25.621094 1.886719 27.714844 1.886719 C 33.363281 1.886719 37.960938 6.464844 37.960938 12.082031 L 37.960938 12.089844 C 37.9375 14.542969 36.917969 17.300781 34.929688 20.292969 C 33.367188 22.636719 31.210938 25.136719 28.503906 27.730469 C 23.921875 32.125 19.285156 35.308594 19.238281 35.339844 Z M 9.953125 3.3125 C 5.09375 3.3125 1.140625 7.246094 1.140625 12.082031 C 1.140625 14.269531 2.066406 16.773438 3.894531 19.53125 C 5.386719 21.785156 7.480469 24.207031 10.113281 26.71875 C 13.839844 30.273438 17.617188 33.023438 18.835938 33.875 C 20.050781 33.015625 23.804688 30.253906 27.523438 26.6875 C 30.148438 24.167969 32.238281 21.753906 33.734375 19.5 C 35.566406 16.742188 36.503906 14.253906 36.519531 12.082031 C 36.519531 7.246094 32.566406 3.320312 27.707031 3.320312 C 24.105469 3.320312 20.808594 5.585938 19.492188 8.96875 L 18.828125 10.691406 L 18.167969 8.96875 C 16.851562 5.585938 13.554688 3.3125 9.953125 3.3125 Z M 9.953125 3.3125 " fill-opacity="1" fill-rule="nonzero"/></g></svg>