<svg xmlns="http://www.w3.org/2000/svg" xmlns:xlink="http://www.w3.org/1999/xlink" width="50" zoomAndPan="magnify" viewBox="0 0 37.5 37.499999" height="50" preserveAspectRatio="xMidYMid meet" version="1.0"><defs><clipPath id="id1"><path d="M 1.363281 0 L 35.863281 0 L 35.863281 37.007812 L 1.363281 37.007812 Z M 1.363281 0 " clip-rule="nonzero"/></clipPath></defs><g clip-path="url(#id1)"><path fill="#ffffff" d="M 35.300781 37.492188 L 23.945312 37.492188 C 23.632812 37.492188 23.378906 37.238281 23.378906 36.921875 L 23.378906 25.902344 C 23.382812 23.277344 21.238281 21.117188 18.632812 21.117188 C 16.027344 21.117188 13.882812 23.277344 13.886719 25.902344 L 13.886719 36.921875 C 13.886719 37.238281 13.632812 37.492188 13.320312 37.492188 L 1.929688 37.492188 C 1.617188 37.492188 1.363281 37.238281 1.363281 36.921875 L 1.363281 17.386719 C 1.363281 17.238281 1.421875 17.089844 1.53125 16.984375 L 18.199219 0.226562 C 18.421875 0.0078125 18.777344 0.00390625 19 0.226562 C 24.566406 5.8125 30.132812 11.398438 35.699219 16.984375 C 35.808594 17.089844 35.867188 17.238281 35.867188 17.386719 L 35.867188 36.921875 C 35.867188 37.238281 35.613281 37.492188 35.300781 37.492188 Z M 35.300781 37.492188 " fill-opacity="1" fill-rule="nonzero"/></g></svg>