<svg xmlns="http://www.w3.org/2000/svg" xmlns:xlink="http://www.w3.org/1999/xlink" width="50" zoomAndPan="magnify" viewBox="0 0 37.5 37.499999" height="50" preserveAspectRatio="xMidYMid meet" version="1.0"><defs><clipPath id="id1"><path d="M 0 0 L 37.007812 0 L 37.007812 37.007812 L 0 37.007812 Z M 0 0 " clip-rule="nonzero"/></clipPath></defs><g clip-path="url(#id1)"><path fill="#ffffff" d="M 7.152344 37.476562 C 7.046875 37.476562 6.945312 37.449219 6.851562 37.390625 C 6.6875 37.285156 6.585938 37.105469 6.585938 36.90625 L 6.585938 30.808594 C 2.398438 27.476562 0 22.644531 0 17.503906 C 0 12.824219 1.957031 8.429688 5.507812 5.128906 C 9.046875 1.835938 13.75 0.0234375 18.75 0.0234375 C 23.753906 0.0234375 28.457031 1.835938 31.996094 5.128906 C 35.546875 8.429688 37.503906 12.824219 37.503906 17.503906 C 37.503906 22.179688 35.546875 26.574219 31.996094 29.878906 C 28.457031 33.171875 23.753906 34.984375 18.75 34.984375 C 17.023438 34.984375 15.3125 34.765625 13.664062 34.332031 L 7.402344 37.417969 C 7.324219 37.457031 7.238281 37.476562 7.152344 37.476562 Z M 18.75 1.15625 C 9.035156 1.15625 1.132812 8.492188 1.132812 17.503906 C 1.132812 22.378906 3.453125 26.960938 7.5 30.078125 C 7.636719 30.1875 7.71875 30.355469 7.71875 30.53125 L 7.71875 35.996094 L 13.355469 33.21875 C 13.480469 33.160156 13.621094 33.144531 13.753906 33.183594 C 15.371094 33.625 17.050781 33.847656 18.75 33.847656 C 28.464844 33.847656 36.371094 26.515625 36.371094 17.503906 C 36.371094 8.492188 28.464844 1.15625 18.75 1.15625 Z M 20.773438 23.496094 C 20.722656 23.496094 20.675781 23.472656 20.640625 23.4375 L 15.796875 18.585938 L 7.375 23.179688 C 7.289062 23.226562 7.1875 23.203125 7.132812 23.128906 C 7.074219 23.050781 7.082031 22.945312 7.148438 22.878906 L 16.742188 13.265625 C 16.816406 13.195312 16.9375 13.195312 17.011719 13.265625 L 21.703125 17.96875 L 30.09375 12.773438 C 30.175781 12.726562 30.277344 12.742188 30.339844 12.8125 C 30.398438 12.886719 30.394531 12.992188 30.332031 13.0625 L 20.914062 23.433594 C 20.878906 23.472656 20.828125 23.492188 20.777344 23.496094 C 20.777344 23.496094 20.773438 23.496094 20.773438 23.496094 Z M 20.773438 23.496094 " fill-opacity="1" fill-rule="nonzero"/></g></svg>