<svg xmlns="http://www.w3.org/2000/svg" xmlns:xlink="http://www.w3.org/1999/xlink" width="175" zoomAndPan="magnify" viewBox="0 0 131.25 37.5" height="50" preserveAspectRatio="xMidYMid meet" version="1.0"><defs><clipPath id="id1"><path d="M 0.492188 0.335938 L 130 0.335938 L 130 37 L 0.492188 37 Z M 0.492188 0.335938 " clip-rule="nonzero"/></clipPath><clipPath id="id2"><path d="M 7.355469 0.382812 C 4.714844 1.492188 1.816406 4.617188 0.890625 8.523438 C -0.265625 13.492188 4.554688 15.59375 4.960938 14.910156 C 5.433594 14.09375 4.097656 13.832031 3.820312 11.246094 C 3.460938 7.921875 5.007812 4.195312 6.964844 2.566406 C 7.320312 2.257812 7.304688 2.679688 7.304688 3.460938 C 7.304688 4.863281 7.222656 17.382812 7.222656 19.988281 C 7.222656 23.523438 7.078125 24.644531 6.816406 25.753906 C 6.554688 26.875 6.117188 27.625 6.441406 27.917969 C 6.800781 28.242188 8.347656 27.460938 9.242188 26.226562 C 10.316406 24.726562 10.691406 22.9375 10.757812 20.980469 C 10.839844 18.621094 10.839844 14.890625 10.839844 12.757812 C 10.839844 10.804688 10.871094 5.089844 10.804688 1.652344 C 10.789062 0.808594 8.445312 -0.0898438 7.355469 0.382812 M 101.078125 16.925781 C 100.996094 18.765625 100.589844 20.199219 100.085938 21.210938 C 99.109375 23.179688 97.074219 23.78125 96.210938 20.964844 C 95.738281 19.433594 95.722656 16.863281 96.0625 14.710938 C 96.40625 12.53125 97.367188 10.871094 98.960938 11.015625 C 100.507812 11.179688 101.242188 13.199219 101.078125 16.925781 Z M 74.667969 28.339844 C 74.652344 31.402344 74.164062 34.074219 73.136719 34.855469 C 71.671875 35.960938 69.703125 35.132812 70.109375 32.902344 C 70.46875 30.929688 72.175781 28.910156 74.667969 26.453125 C 74.667969 26.453125 74.667969 27.007812 74.667969 28.339844 Z M 74.261719 16.910156 C 74.179688 18.589844 73.738281 20.265625 73.265625 21.226562 C 72.289062 23.195312 70.238281 23.796875 69.390625 20.980469 C 68.804688 19.042969 68.953125 16.554688 69.246094 14.972656 C 69.621094 12.9375 70.515625 11.03125 72.144531 11.03125 C 73.707031 11.03125 74.488281 12.757812 74.261719 16.910156 Z M 58.953125 16.894531 C 58.855469 18.667969 58.515625 20.152344 57.960938 21.226562 C 56.953125 23.179688 54.964844 23.796875 54.085938 20.980469 C 53.453125 18.945312 53.664062 16.179688 53.941406 14.679688 C 54.332031 12.464844 55.308594 10.886719 56.839844 11.03125 C 58.402344 11.179688 59.148438 13.199219 58.953125 16.894531 Z M 129.085938 18.960938 C 128.695312 18.960938 128.53125 19.351562 128.386719 20.019531 C 127.878906 22.332031 127.359375 22.855469 126.675781 22.855469 C 125.910156 22.855469 125.226562 21.714844 125.0625 19.417969 C 124.933594 17.609375 124.949219 14.304688 125.128906 11 C 125.160156 10.316406 124.980469 9.648438 123.160156 8.996094 C 122.375 8.722656 121.238281 8.296875 120.667969 9.664062 C 119.070312 13.523438 118.4375 16.585938 118.289062 17.839844 C 118.289062 17.90625 118.207031 17.921875 118.191406 17.773438 C 118.09375 16.78125 117.882812 14.972656 117.867188 11.164062 C 117.867188 10.414062 117.703125 9.796875 116.890625 9.273438 C 116.351562 8.933594 114.738281 8.347656 114.152344 9.046875 C 113.648438 9.617188 113.0625 11.179688 112.460938 13.019531 C 111.972656 14.515625 111.628906 15.527344 111.628906 15.527344 C 111.628906 15.527344 111.628906 11.488281 111.644531 9.957031 C 111.644531 9.371094 111.253906 9.191406 111.125 9.144531 C 110.589844 8.980469 109.53125 8.722656 109.074219 8.722656 C 108.519531 8.722656 108.390625 9.03125 108.390625 9.484375 C 108.390625 9.550781 108.308594 14.8125 108.308594 18.492188 C 108.308594 18.652344 108.308594 18.832031 108.308594 19.011719 C 108 20.703125 107.003906 23 105.914062 23 C 104.824219 23 104.320312 22.039062 104.320312 17.660156 C 104.320312 15.105469 104.402344 13.980469 104.433594 12.140625 C 104.449219 11.082031 104.5 10.25 104.5 10.070312 C 104.5 9.503906 103.503906 9.210938 103.050781 9.113281 C 102.59375 8.996094 102.1875 8.964844 101.875 8.980469 C 101.4375 9.015625 101.128906 9.289062 101.128906 9.699219 C 101.128906 9.910156 101.128906 10.316406 101.128906 10.316406 C 100.558594 9.421875 99.644531 8.800781 99.027344 8.625 C 97.382812 8.132812 95.671875 8.574219 94.386719 10.382812 C 93.359375 11.816406 92.742188 13.441406 92.496094 15.789062 C 92.320312 17.496094 92.382812 19.222656 92.691406 20.703125 C 92.300781 22.367188 91.601562 23.035156 90.820312 23.035156 C 89.695312 23.035156 88.867188 21.195312 88.964844 18.003906 C 89.03125 15.902344 89.453125 14.4375 89.910156 12.304688 C 90.105469 11.390625 89.941406 10.917969 89.550781 10.464844 C 89.191406 10.039062 88.410156 9.828125 87.289062 10.089844 C 86.488281 10.269531 85.347656 10.480469 84.308594 10.625 C 84.308594 10.625 84.371094 10.382812 84.421875 9.925781 C 84.699219 7.597656 82.175781 7.792969 81.359375 8.542969 C 80.871094 8.980469 80.546875 9.503906 80.433594 10.445312 C 80.238281 11.945312 81.457031 12.644531 81.457031 12.644531 C 81.066406 14.46875 80.074219 16.863281 79.082031 18.570312 C 78.542969 19.5 78.121094 20.183594 77.597656 20.898438 C 77.597656 20.625 77.597656 20.363281 77.597656 20.085938 C 77.582031 16.242188 77.632812 13.230469 77.664062 12.140625 C 77.679688 11.082031 77.730469 10.285156 77.730469 10.089844 C 77.730469 9.664062 77.484375 9.519531 76.980469 9.324219 C 76.539062 9.144531 76.003906 9.03125 75.449219 8.980469 C 74.75 8.933594 74.34375 9.289062 74.34375 9.730469 C 74.34375 9.8125 74.34375 10.316406 74.34375 10.316406 C 73.773438 9.421875 72.859375 8.800781 72.242188 8.625 C 70.597656 8.132812 68.886719 8.574219 67.601562 10.382812 C 66.574219 11.816406 65.90625 13.832031 65.710938 15.769531 C 65.535156 17.578125 65.566406 19.109375 65.808594 20.394531 C 65.550781 21.683594 64.800781 23.035156 63.953125 23.035156 C 62.863281 23.035156 62.242188 22.074219 62.242188 17.691406 C 62.242188 15.136719 62.324219 14.011719 62.359375 12.171875 C 62.375 11.113281 62.421875 10.285156 62.421875 10.105469 C 62.421875 9.535156 61.429688 9.242188 60.972656 9.144531 C 60.5 9.03125 60.078125 8.996094 59.769531 9.015625 C 59.347656 9.046875 59.050781 9.421875 59.050781 9.699219 L 59.050781 10.347656 C 58.484375 9.453125 57.570312 8.835938 56.953125 8.65625 C 55.308594 8.167969 53.597656 8.605469 52.3125 10.414062 C 51.464844 11.585938 50.78125 12.890625 50.421875 15.769531 C 50.324219 16.601562 50.277344 17.382812 50.277344 18.117188 C 49.933594 20.183594 48.4375 22.578125 47.214844 22.578125 C 46.5 22.578125 45.816406 21.195312 45.816406 18.230469 C 45.816406 14.289062 46.058594 8.671875 46.109375 8.132812 C 46.109375 8.132812 47.65625 8.101562 47.949219 8.101562 C 48.714844 8.085938 49.414062 8.117188 50.4375 8.054688 C 50.960938 8.019531 51.449219 6.179688 50.910156 5.953125 C 50.667969 5.855469 48.972656 5.757812 48.289062 5.742188 C 47.71875 5.726562 46.140625 5.609375 46.140625 5.609375 C 46.140625 5.609375 46.285156 1.882812 46.320312 1.492188 C 46.351562 1.164062 45.929688 0.988281 45.683594 0.890625 C 45.097656 0.644531 44.5625 0.515625 43.941406 0.382812 C 43.078125 0.203125 42.6875 0.382812 42.605469 1.117188 C 42.492188 2.222656 42.429688 5.480469 42.429688 5.480469 C 41.792969 5.480469 39.609375 5.351562 38.976562 5.351562 C 38.390625 5.351562 37.738281 7.890625 38.570312 7.921875 C 39.511719 7.957031 41.140625 7.988281 42.230469 8.019531 C 42.230469 8.019531 42.183594 13.71875 42.183594 15.496094 C 42.183594 15.691406 42.183594 15.867188 42.183594 16.03125 C 41.582031 19.140625 39.480469 20.835938 39.480469 20.835938 C 39.9375 18.765625 39.007812 17.21875 37.347656 15.917969 C 36.730469 15.429688 35.523438 14.515625 34.171875 13.523438 C 34.171875 13.523438 34.953125 12.757812 35.652344 11.195312 C 36.144531 10.089844 36.175781 8.835938 34.953125 8.558594 C 32.949219 8.101562 31.304688 9.566406 30.816406 11.128906 C 30.445312 12.351562 30.640625 13.246094 31.386719 14.175781 C 31.4375 14.242188 31.503906 14.304688 31.566406 14.386719 C 31.109375 15.25 30.492188 16.421875 29.972656 17.335938 C 28.507812 19.859375 27.414062 21.84375 26.585938 21.84375 C 25.917969 21.84375 25.933594 19.824219 25.933594 17.921875 C 25.933594 16.292969 26.046875 13.832031 26.144531 11.277344 C 26.175781 10.429688 25.753906 9.957031 25.054688 9.519531 C 24.628906 9.257812 23.71875 8.738281 23.179688 8.738281 C 22.382812 8.738281 20.105469 8.851562 17.9375 15.105469 C 17.660156 15.886719 17.125 17.335938 17.125 17.335938 L 17.171875 9.8125 C 17.171875 9.632812 17.074219 9.46875 16.863281 9.355469 C 16.503906 9.160156 15.527344 8.753906 14.664062 8.753906 C 14.257812 8.753906 14.046875 8.949219 14.046875 9.324219 L 13.898438 21.03125 C 13.898438 21.925781 13.917969 22.96875 14.015625 23.425781 C 14.09375 23.878906 14.242188 24.253906 14.421875 24.464844 C 14.601562 24.695312 14.796875 24.855469 15.136719 24.921875 C 15.445312 24.988281 17.171875 25.199219 17.253906 24.546875 C 17.367188 23.765625 17.367188 22.917969 18.265625 19.746094 C 19.664062 14.8125 21.488281 12.402344 22.351562 11.554688 C 22.496094 11.40625 22.675781 11.390625 22.660156 11.636719 C 22.628906 12.710938 22.496094 15.414062 22.398438 17.707031 C 22.171875 23.847656 23.277344 24.988281 24.875 24.988281 C 26.097656 24.988281 27.820312 23.765625 29.660156 20.703125 C 30.816406 18.785156 31.925781 16.910156 32.738281 15.558594 C 33.292969 16.082031 33.929688 16.632812 34.546875 17.238281 C 36.011719 18.621094 36.484375 19.941406 36.160156 21.175781 C 35.914062 22.136719 35.003906 23.113281 33.375 22.152344 C 32.902344 21.878906 32.691406 21.664062 32.21875 21.339844 C 31.957031 21.175781 31.566406 21.128906 31.339844 21.292969 C 30.738281 21.746094 30.378906 22.332031 30.183594 23.066406 C 29.988281 23.765625 30.6875 24.140625 31.421875 24.464844 C 32.054688 24.742188 33.40625 25.003906 34.269531 25.035156 C 37.625 25.148438 40.328125 23.40625 42.199219 18.929688 C 42.542969 22.789062 43.957031 24.988281 46.449219 24.988281 C 48.109375 24.988281 49.769531 22.839844 50.503906 20.738281 C 50.714844 21.601562 51.023438 22.347656 51.414062 22.984375 C 53.320312 26.011719 57.035156 25.363281 58.90625 22.789062 C 59.476562 21.992188 59.574219 21.714844 59.574219 21.714844 C 59.851562 24.140625 61.804688 24.988281 62.929688 24.988281 C 64.183594 24.988281 65.484375 24.402344 66.378906 22.347656 C 66.492188 22.578125 66.609375 22.789062 66.722656 22.984375 C 68.628906 26.011719 72.339844 25.363281 74.210938 22.789062 C 74.292969 22.675781 74.375 22.5625 74.441406 22.464844 L 74.488281 24.058594 C 74.488281 24.058594 73.429688 25.035156 72.777344 25.640625 C 69.914062 28.277344 67.730469 30.28125 67.570312 32.609375 C 67.355469 35.570312 69.765625 36.679688 71.589844 36.824219 C 73.527344 36.972656 75.171875 35.914062 76.199219 34.414062 C 77.09375 33.097656 77.679688 30.261719 77.632812 27.460938 C 77.613281 26.339844 77.582031 24.921875 77.566406 23.390625 C 78.574219 22.21875 79.714844 20.738281 80.757812 19.011719 C 81.898438 17.121094 83.117188 14.582031 83.753906 12.613281 C 83.753906 12.613281 84.8125 12.628906 85.953125 12.546875 C 86.308594 12.53125 86.425781 12.597656 86.359375 12.855469 C 86.277344 13.183594 84.925781 18.394531 86.164062 21.859375 C 87.011719 24.238281 88.914062 25.003906 90.039062 25.003906 C 91.359375 25.003906 92.628906 24.011719 93.296875 22.527344 C 93.378906 22.691406 93.457031 22.855469 93.554688 23 C 95.460938 26.03125 99.15625 25.378906 101.046875 22.804688 C 101.46875 22.21875 101.714844 21.730469 101.714844 21.730469 C 102.121094 24.238281 104.074219 25.019531 105.199219 25.019531 C 106.371094 25.019531 107.476562 24.546875 108.375 22.414062 C 108.40625 23.34375 108.472656 24.109375 108.570312 24.351562 C 108.617188 24.5 108.960938 24.679688 109.203125 24.777344 C 110.277344 25.167969 111.351562 24.988281 111.761719 24.90625 C 112.039062 24.855469 112.25 24.628906 112.28125 24.042969 C 112.363281 22.527344 112.3125 19.972656 112.769531 18.082031 C 113.535156 14.910156 114.269531 13.671875 114.609375 13.050781 C 114.804688 12.710938 115.015625 12.660156 115.015625 13.019531 C 115.035156 13.753906 115.066406 15.902344 115.375 18.800781 C 115.585938 20.933594 115.894531 22.1875 116.109375 22.578125 C 116.757812 23.71875 117.539062 23.765625 118.191406 23.765625 C 118.597656 23.765625 119.460938 23.652344 119.378906 22.9375 C 119.347656 22.578125 119.414062 20.394531 120.164062 17.269531 C 120.667969 15.21875 121.480469 13.378906 121.789062 12.695312 C 121.90625 12.449219 121.953125 12.644531 121.953125 12.675781 C 121.886719 14.09375 121.742188 18.703125 122.328125 21.210938 C 123.109375 24.628906 125.355469 25.003906 126.136719 25.003906 C 127.816406 25.003906 129.183594 23.734375 129.640625 20.378906 C 129.753906 19.582031 129.589844 18.960938 129.085938 18.960938 " clip-rule="nonzero"/></clipPath><linearGradient x1="102.663878" gradientTransform="matrix(0.162829, 0, 0, 0.162829, -16.223229, -118.448679)" y1="841.328" x2="896.50001" gradientUnits="userSpaceOnUse" y2="841.328" id="id3"><stop stop-opacity="1" stop-color="rgb(88.598633%, 66.299438%, 21.598816%)" offset="0"/><stop stop-opacity="1" stop-color="rgb(88.760376%, 65.797424%, 21.562195%)" offset="0.00390625"/><stop stop-opacity="1" stop-color="rgb(88.922119%, 65.296936%, 21.5271%)" offset="0.0078125"/><stop stop-opacity="1" stop-color="rgb(89.128113%, 64.659119%, 21.479797%)" offset="0.0117187"/><stop stop-opacity="1" stop-color="rgb(89.334106%, 64.021301%, 21.434021%)" offset="0.015625"/><stop stop-opacity="1" stop-color="rgb(89.5401%, 63.381958%, 21.386719%)" offset="0.0195312"/><stop stop-opacity="1" stop-color="rgb(89.746094%, 62.744141%, 21.340942%)" offset="0.0234375"/><stop stop-opacity="1" stop-color="rgb(89.952087%, 62.106323%, 21.29364%)" offset="0.0273438"/><stop stop-opacity="1" stop-color="rgb(90.158081%, 61.468506%, 21.247864%)" offset="0.03125"/><stop stop-opacity="1" stop-color="rgb(90.364075%, 60.830688%, 21.200562%)" offset="0.0351562"/><stop stop-opacity="1" stop-color="rgb(90.570068%, 60.192871%, 21.154785%)" offset="0.0390625"/><stop stop-opacity="1" stop-color="rgb(90.776062%, 59.555054%, 21.107483%)" offset="0.0429687"/><stop stop-opacity="1" stop-color="rgb(90.982056%, 58.917236%, 21.061707%)" offset="0.046875"/><stop stop-opacity="1" stop-color="rgb(91.188049%, 58.277893%, 21.01593%)" offset="0.0507812"/><stop stop-opacity="1" stop-color="rgb(91.394043%, 57.640076%, 20.970154%)" offset="0.0546875"/><stop stop-opacity="1" stop-color="rgb(91.600037%, 57.002258%, 20.922852%)" offset="0.0585937"/><stop stop-opacity="1" stop-color="rgb(91.80603%, 56.364441%, 20.877075%)" offset="0.0625"/><stop stop-opacity="1" stop-color="rgb(92.012024%, 55.726624%, 20.829773%)" offset="0.0664062"/><stop stop-opacity="1" stop-color="rgb(92.218018%, 55.088806%, 20.783997%)" offset="0.0703125"/><stop stop-opacity="1" stop-color="rgb(92.422485%, 54.449463%, 20.736694%)" offset="0.0742188"/><stop stop-opacity="1" stop-color="rgb(92.628479%, 53.811646%, 20.690918%)" offset="0.078125"/><stop stop-opacity="1" stop-color="rgb(92.834473%, 53.173828%, 20.643616%)" offset="0.0820312"/><stop stop-opacity="1" stop-color="rgb(93.040466%, 52.536011%, 20.597839%)" offset="0.0859375"/><stop stop-opacity="1" stop-color="rgb(93.24646%, 51.898193%, 20.550537%)" offset="0.0898438"/><stop stop-opacity="1" stop-color="rgb(93.452454%, 51.260376%, 20.504761%)" offset="0.09375"/><stop stop-opacity="1" stop-color="rgb(93.658447%, 50.622559%, 20.458984%)" offset="0.0976562"/><stop stop-opacity="1" stop-color="rgb(93.864441%, 49.984741%, 20.413208%)" offset="0.101562"/><stop stop-opacity="1" stop-color="rgb(94.070435%, 49.345398%, 20.365906%)" offset="0.105469"/><stop stop-opacity="1" stop-color="rgb(94.276428%, 48.707581%, 20.320129%)" offset="0.109375"/><stop stop-opacity="1" stop-color="rgb(94.482422%, 48.069763%, 20.272827%)" offset="0.113281"/><stop stop-opacity="1" stop-color="rgb(94.688416%, 47.431946%, 20.227051%)" offset="0.117187"/><stop stop-opacity="1" stop-color="rgb(94.894409%, 46.794128%, 20.179749%)" offset="0.121094"/><stop stop-opacity="1" stop-color="rgb(95.100403%, 46.156311%, 20.133972%)" offset="0.125"/><stop stop-opacity="1" stop-color="rgb(95.306396%, 45.516968%, 20.08667%)" offset="0.128906"/><stop stop-opacity="1" stop-color="rgb(95.51239%, 44.87915%, 20.040894%)" offset="0.132812"/><stop stop-opacity="1" stop-color="rgb(95.506287%, 44.473267%, 20.15686%)" offset="0.136719"/><stop stop-opacity="1" stop-color="rgb(95.501709%, 44.068909%, 20.274353%)" offset="0.140625"/><stop stop-opacity="1" stop-color="rgb(95.318604%, 43.858337%, 20.527649%)" offset="0.144531"/><stop stop-opacity="1" stop-color="rgb(95.137024%, 43.647766%, 20.780945%)" offset="0.148438"/><stop stop-opacity="1" stop-color="rgb(94.955444%, 43.437195%, 21.032715%)" offset="0.152344"/><stop stop-opacity="1" stop-color="rgb(94.773865%, 43.226624%, 21.286011%)" offset="0.15625"/><stop stop-opacity="1" stop-color="rgb(94.592285%, 43.016052%, 21.537781%)" offset="0.160156"/><stop stop-opacity="1" stop-color="rgb(94.410706%, 42.805481%, 21.791077%)" offset="0.164062"/><stop stop-opacity="1" stop-color="rgb(94.229126%, 42.59491%, 22.042847%)" offset="0.167969"/><stop stop-opacity="1" stop-color="rgb(94.047546%, 42.384338%, 22.296143%)" offset="0.171875"/><stop stop-opacity="1" stop-color="rgb(93.865967%, 42.173767%, 22.549438%)" offset="0.175781"/><stop stop-opacity="1" stop-color="rgb(93.684387%, 41.963196%, 22.802734%)" offset="0.179687"/><stop stop-opacity="1" stop-color="rgb(93.502808%, 41.752625%, 23.054504%)" offset="0.183594"/><stop stop-opacity="1" stop-color="rgb(93.321228%, 41.542053%, 23.3078%)" offset="0.1875"/><stop stop-opacity="1" stop-color="rgb(93.138123%, 41.331482%, 23.55957%)" offset="0.191406"/><stop stop-opacity="1" stop-color="rgb(92.956543%, 41.120911%, 23.812866%)" offset="0.195312"/><stop stop-opacity="1" stop-color="rgb(92.774963%, 40.910339%, 24.066162%)" offset="0.199219"/><stop stop-opacity="1" stop-color="rgb(92.593384%, 40.699768%, 24.319458%)" offset="0.203125"/><stop stop-opacity="1" stop-color="rgb(92.411804%, 40.489197%, 24.571228%)" offset="0.207031"/><stop stop-opacity="1" stop-color="rgb(92.230225%, 40.278625%, 24.824524%)" offset="0.210937"/><stop stop-opacity="1" stop-color="rgb(92.048645%, 40.068054%, 25.076294%)" offset="0.214844"/><stop stop-opacity="1" stop-color="rgb(91.867065%, 39.857483%, 25.32959%)" offset="0.21875"/><stop stop-opacity="1" stop-color="rgb(91.685486%, 39.646912%, 25.582886%)" offset="0.222656"/><stop stop-opacity="1" stop-color="rgb(91.503906%, 39.43634%, 25.836182%)" offset="0.226562"/><stop stop-opacity="1" stop-color="rgb(91.320801%, 39.225769%, 26.087952%)" offset="0.230469"/><stop stop-opacity="1" stop-color="rgb(91.139221%, 39.015198%, 26.341248%)" offset="0.234375"/><stop stop-opacity="1" stop-color="rgb(90.957642%, 38.803101%, 26.593018%)" offset="0.238281"/><stop stop-opacity="1" stop-color="rgb(90.776062%, 38.592529%, 26.846313%)" offset="0.242187"/><stop stop-opacity="1" stop-color="rgb(90.594482%, 38.381958%, 27.098083%)" offset="0.246094"/><stop stop-opacity="1" stop-color="rgb(90.412903%, 38.171387%, 27.351379%)" offset="0.25"/><stop stop-opacity="1" stop-color="rgb(90.231323%, 37.960815%, 27.604675%)" offset="0.253906"/><stop stop-opacity="1" stop-color="rgb(90.049744%, 37.750244%, 27.857971%)" offset="0.257812"/><stop stop-opacity="1" stop-color="rgb(89.868164%, 37.539673%, 28.109741%)" offset="0.261719"/><stop stop-opacity="1" stop-color="rgb(89.686584%, 37.329102%, 28.363037%)" offset="0.265625"/><stop stop-opacity="1" stop-color="rgb(89.503479%, 37.11853%, 28.614807%)" offset="0.269531"/><stop stop-opacity="1" stop-color="rgb(89.321899%, 36.907959%, 28.868103%)" offset="0.273438"/><stop stop-opacity="1" stop-color="rgb(89.14032%, 36.697388%, 29.121399%)" offset="0.277344"/><stop stop-opacity="1" stop-color="rgb(88.95874%, 36.486816%, 29.374695%)" offset="0.28125"/><stop stop-opacity="1" stop-color="rgb(88.777161%, 36.276245%, 29.626465%)" offset="0.285156"/><stop stop-opacity="1" stop-color="rgb(88.595581%, 36.065674%, 29.879761%)" offset="0.289062"/><stop stop-opacity="1" stop-color="rgb(88.414001%, 35.855103%, 30.131531%)" offset="0.292969"/><stop stop-opacity="1" stop-color="rgb(88.232422%, 35.644531%, 30.384827%)" offset="0.296875"/><stop stop-opacity="1" stop-color="rgb(88.050842%, 35.43396%, 30.636597%)" offset="0.300781"/><stop stop-opacity="1" stop-color="rgb(87.869263%, 35.223389%, 30.889893%)" offset="0.304688"/><stop stop-opacity="1" stop-color="rgb(87.687683%, 35.012817%, 31.143188%)" offset="0.308594"/><stop stop-opacity="1" stop-color="rgb(87.506104%, 34.802246%, 31.396484%)" offset="0.3125"/><stop stop-opacity="1" stop-color="rgb(87.322998%, 34.591675%, 31.648254%)" offset="0.316406"/><stop stop-opacity="1" stop-color="rgb(87.141418%, 34.381104%, 31.90155%)" offset="0.320312"/><stop stop-opacity="1" stop-color="rgb(86.959839%, 34.170532%, 32.15332%)" offset="0.324219"/><stop stop-opacity="1" stop-color="rgb(86.778259%, 33.959961%, 32.406616%)" offset="0.328125"/><stop stop-opacity="1" stop-color="rgb(86.59668%, 33.74939%, 32.659912%)" offset="0.332031"/><stop stop-opacity="1" stop-color="rgb(86.4151%, 33.538818%, 32.913208%)" offset="0.335938"/><stop stop-opacity="1" stop-color="rgb(86.233521%, 33.326721%, 33.164978%)" offset="0.339844"/><stop stop-opacity="1" stop-color="rgb(86.051941%, 33.11615%, 33.418274%)" offset="0.34375"/><stop stop-opacity="1" stop-color="rgb(85.870361%, 32.905579%, 33.670044%)" offset="0.347656"/><stop stop-opacity="1" stop-color="rgb(85.688782%, 32.695007%, 33.92334%)" offset="0.351562"/><stop stop-opacity="1" stop-color="rgb(85.505676%, 32.484436%, 34.176636%)" offset="0.355469"/><stop stop-opacity="1" stop-color="rgb(85.324097%, 32.273865%, 34.429932%)" offset="0.359375"/><stop stop-opacity="1" stop-color="rgb(85.142517%, 32.063293%, 34.681702%)" offset="0.363281"/><stop stop-opacity="1" stop-color="rgb(84.960938%, 31.852722%, 34.934998%)" offset="0.367188"/><stop stop-opacity="1" stop-color="rgb(84.779358%, 31.642151%, 35.186768%)" offset="0.371094"/><stop stop-opacity="1" stop-color="rgb(84.597778%, 31.43158%, 35.440063%)" offset="0.375"/><stop stop-opacity="1" stop-color="rgb(84.416199%, 31.221008%, 35.691833%)" offset="0.378906"/><stop stop-opacity="1" stop-color="rgb(84.234619%, 31.010437%, 35.945129%)" offset="0.382812"/><stop stop-opacity="1" stop-color="rgb(84.05304%, 30.799866%, 36.198425%)" offset="0.386719"/><stop stop-opacity="1" stop-color="rgb(83.87146%, 30.589294%, 36.451721%)" offset="0.390625"/><stop stop-opacity="1" stop-color="rgb(83.68988%, 30.378723%, 36.703491%)" offset="0.394531"/><stop stop-opacity="1" stop-color="rgb(83.508301%, 30.168152%, 36.956787%)" offset="0.398437"/><stop stop-opacity="1" stop-color="rgb(83.325195%, 29.957581%, 37.208557%)" offset="0.402344"/><stop stop-opacity="1" stop-color="rgb(83.143616%, 29.747009%, 37.461853%)" offset="0.40625"/><stop stop-opacity="1" stop-color="rgb(82.962036%, 29.536438%, 37.715149%)" offset="0.410156"/><stop stop-opacity="1" stop-color="rgb(82.780457%, 29.325867%, 37.968445%)" offset="0.414062"/><stop stop-opacity="1" stop-color="rgb(82.598877%, 29.115295%, 38.220215%)" offset="0.417969"/><stop stop-opacity="1" stop-color="rgb(82.417297%, 28.904724%, 38.473511%)" offset="0.421875"/><stop stop-opacity="1" stop-color="rgb(82.235718%, 28.694153%, 38.725281%)" offset="0.425781"/><stop stop-opacity="1" stop-color="rgb(82.054138%, 28.483582%, 38.978577%)" offset="0.429687"/><stop stop-opacity="1" stop-color="rgb(81.872559%, 28.271484%, 39.230347%)" offset="0.433594"/><stop stop-opacity="1" stop-color="rgb(81.690979%, 28.060913%, 39.483643%)" offset="0.4375"/><stop stop-opacity="1" stop-color="rgb(81.507874%, 27.850342%, 39.736938%)" offset="0.441406"/><stop stop-opacity="1" stop-color="rgb(81.326294%, 27.639771%, 39.990234%)" offset="0.445312"/><stop stop-opacity="1" stop-color="rgb(81.144714%, 27.429199%, 40.242004%)" offset="0.449219"/><stop stop-opacity="1" stop-color="rgb(80.963135%, 27.218628%, 40.4953%)" offset="0.453125"/><stop stop-opacity="1" stop-color="rgb(80.781555%, 27.008057%, 40.74707%)" offset="0.457031"/><stop stop-opacity="1" stop-color="rgb(80.599976%, 26.797485%, 41.000366%)" offset="0.460937"/><stop stop-opacity="1" stop-color="rgb(80.418396%, 26.586914%, 41.253662%)" offset="0.464844"/><stop stop-opacity="1" stop-color="rgb(80.236816%, 26.376343%, 41.506958%)" offset="0.46875"/><stop stop-opacity="1" stop-color="rgb(80.055237%, 26.165771%, 41.758728%)" offset="0.472656"/><stop stop-opacity="1" stop-color="rgb(79.873657%, 25.9552%, 42.012024%)" offset="0.476562"/><stop stop-opacity="1" stop-color="rgb(79.690552%, 25.744629%, 42.263794%)" offset="0.480469"/><stop stop-opacity="1" stop-color="rgb(79.508972%, 25.534058%, 42.51709%)" offset="0.484375"/><stop stop-opacity="1" stop-color="rgb(79.327393%, 25.323486%, 42.770386%)" offset="0.488281"/><stop stop-opacity="1" stop-color="rgb(79.145813%, 25.112915%, 43.023682%)" offset="0.492187"/><stop stop-opacity="1" stop-color="rgb(78.964233%, 24.902344%, 43.275452%)" offset="0.496094"/><stop stop-opacity="1" stop-color="rgb(78.782654%, 24.691772%, 43.528748%)" offset="0.5"/><stop stop-opacity="1" stop-color="rgb(78.601074%, 24.481201%, 43.780518%)" offset="0.503906"/><stop stop-opacity="1" stop-color="rgb(78.419495%, 24.27063%, 44.033813%)" offset="0.507812"/><stop stop-opacity="1" stop-color="rgb(78.237915%, 24.060059%, 44.285583%)" offset="0.511719"/><stop stop-opacity="1" stop-color="rgb(78.056335%, 23.849487%, 44.538879%)" offset="0.515625"/><stop stop-opacity="1" stop-color="rgb(77.874756%, 23.638916%, 44.792175%)" offset="0.519531"/><stop stop-opacity="1" stop-color="rgb(77.693176%, 23.428345%, 45.045471%)" offset="0.523438"/><stop stop-opacity="1" stop-color="rgb(77.510071%, 23.217773%, 45.297241%)" offset="0.527344"/><stop stop-opacity="1" stop-color="rgb(77.328491%, 23.007202%, 45.550537%)" offset="0.53125"/><stop stop-opacity="1" stop-color="rgb(77.146912%, 22.795105%, 45.802307%)" offset="0.535156"/><stop stop-opacity="1" stop-color="rgb(76.965332%, 22.584534%, 46.055603%)" offset="0.539062"/><stop stop-opacity="1" stop-color="rgb(76.783752%, 22.373962%, 46.308899%)" offset="0.542969"/><stop stop-opacity="1" stop-color="rgb(76.602173%, 22.163391%, 46.562195%)" offset="0.546875"/><stop stop-opacity="1" stop-color="rgb(76.420593%, 21.95282%, 46.813965%)" offset="0.550781"/><stop stop-opacity="1" stop-color="rgb(76.239014%, 21.742249%, 47.067261%)" offset="0.554688"/><stop stop-opacity="1" stop-color="rgb(76.057434%, 21.531677%, 47.319031%)" offset="0.558594"/><stop stop-opacity="1" stop-color="rgb(75.875854%, 21.321106%, 47.572327%)" offset="0.5625"/><stop stop-opacity="1" stop-color="rgb(75.692749%, 21.110535%, 47.824097%)" offset="0.566406"/><stop stop-opacity="1" stop-color="rgb(75.511169%, 20.899963%, 48.077393%)" offset="0.570312"/><stop stop-opacity="1" stop-color="rgb(75.32959%, 20.689392%, 48.330688%)" offset="0.574219"/><stop stop-opacity="1" stop-color="rgb(75.14801%, 20.478821%, 48.583984%)" offset="0.578125"/><stop stop-opacity="1" stop-color="rgb(74.966431%, 20.26825%, 48.835754%)" offset="0.582031"/><stop stop-opacity="1" stop-color="rgb(74.784851%, 20.057678%, 49.08905%)" offset="0.585937"/><stop stop-opacity="1" stop-color="rgb(74.603271%, 19.847107%, 49.34082%)" offset="0.589844"/><stop stop-opacity="1" stop-color="rgb(74.421692%, 19.636536%, 49.594116%)" offset="0.59375"/><stop stop-opacity="1" stop-color="rgb(74.240112%, 19.425964%, 49.847412%)" offset="0.597656"/><stop stop-opacity="1" stop-color="rgb(74.058533%, 19.215393%, 50.100708%)" offset="0.601562"/><stop stop-opacity="1" stop-color="rgb(73.872375%, 19.009399%, 50.354004%)" offset="0.605469"/><stop stop-opacity="1" stop-color="rgb(73.687744%, 18.804932%, 50.6073%)" offset="0.609375"/><stop stop-opacity="1" stop-color="rgb(73.248291%, 19.004822%, 50.924683%)" offset="0.613281"/><stop stop-opacity="1" stop-color="rgb(72.808838%, 19.204712%, 51.243591%)" offset="0.617187"/><stop stop-opacity="1" stop-color="rgb(72.369385%, 19.404602%, 51.5625%)" offset="0.621094"/><stop stop-opacity="1" stop-color="rgb(71.929932%, 19.606018%, 51.881409%)" offset="0.625"/><stop stop-opacity="1" stop-color="rgb(71.490479%, 19.805908%, 52.198792%)" offset="0.628906"/><stop stop-opacity="1" stop-color="rgb(71.051025%, 20.005798%, 52.5177%)" offset="0.632812"/><stop stop-opacity="1" stop-color="rgb(70.611572%, 20.205688%, 52.835083%)" offset="0.636719"/><stop stop-opacity="1" stop-color="rgb(70.172119%, 20.407104%, 53.153992%)" offset="0.640625"/><stop stop-opacity="1" stop-color="rgb(69.73114%, 20.606995%, 53.4729%)" offset="0.644531"/><stop stop-opacity="1" stop-color="rgb(69.291687%, 20.806885%, 53.791809%)" offset="0.648437"/><stop stop-opacity="1" stop-color="rgb(68.852234%, 21.006775%, 54.109192%)" offset="0.652344"/><stop stop-opacity="1" stop-color="rgb(68.412781%, 21.208191%, 54.428101%)" offset="0.65625"/><stop stop-opacity="1" stop-color="rgb(67.973328%, 21.408081%, 54.747009%)" offset="0.660156"/><stop stop-opacity="1" stop-color="rgb(67.533875%, 21.607971%, 55.065918%)" offset="0.664062"/><stop stop-opacity="1" stop-color="rgb(67.094421%, 21.807861%, 55.383301%)" offset="0.667969"/><stop stop-opacity="1" stop-color="rgb(66.654968%, 22.009277%, 55.702209%)" offset="0.671875"/><stop stop-opacity="1" stop-color="rgb(66.215515%, 22.209167%, 56.019592%)" offset="0.675781"/><stop stop-opacity="1" stop-color="rgb(65.776062%, 22.409058%, 56.338501%)" offset="0.679687"/><stop stop-opacity="1" stop-color="rgb(65.335083%, 22.608948%, 56.65741%)" offset="0.683594"/><stop stop-opacity="1" stop-color="rgb(64.89563%, 22.810364%, 56.976318%)" offset="0.6875"/><stop stop-opacity="1" stop-color="rgb(64.456177%, 23.010254%, 57.293701%)" offset="0.691406"/><stop stop-opacity="1" stop-color="rgb(64.016724%, 23.210144%, 57.61261%)" offset="0.695312"/><stop stop-opacity="1" stop-color="rgb(63.577271%, 23.410034%, 57.929993%)" offset="0.699219"/><stop stop-opacity="1" stop-color="rgb(63.137817%, 23.61145%, 58.248901%)" offset="0.703125"/><stop stop-opacity="1" stop-color="rgb(62.698364%, 23.81134%, 58.56781%)" offset="0.707031"/><stop stop-opacity="1" stop-color="rgb(62.258911%, 24.01123%, 58.886719%)" offset="0.710938"/><stop stop-opacity="1" stop-color="rgb(61.819458%, 24.211121%, 59.204102%)" offset="0.714844"/><stop stop-opacity="1" stop-color="rgb(61.380005%, 24.412537%, 59.52301%)" offset="0.71875"/><stop stop-opacity="1" stop-color="rgb(60.940552%, 24.612427%, 59.841919%)" offset="0.722656"/><stop stop-opacity="1" stop-color="rgb(60.501099%, 24.812317%, 60.160828%)" offset="0.726562"/><stop stop-opacity="1" stop-color="rgb(60.06012%, 25.012207%, 60.47821%)" offset="0.730469"/><stop stop-opacity="1" stop-color="rgb(59.620667%, 25.213623%, 60.797119%)" offset="0.734375"/><stop stop-opacity="1" stop-color="rgb(59.181213%, 25.413513%, 61.114502%)" offset="0.738281"/><stop stop-opacity="1" stop-color="rgb(58.74176%, 25.613403%, 61.433411%)" offset="0.742188"/><stop stop-opacity="1" stop-color="rgb(58.302307%, 25.813293%, 61.752319%)" offset="0.746094"/><stop stop-opacity="1" stop-color="rgb(57.862854%, 26.014709%, 62.071228%)" offset="0.75"/><stop stop-opacity="1" stop-color="rgb(57.423401%, 26.2146%, 62.388611%)" offset="0.753906"/><stop stop-opacity="1" stop-color="rgb(56.983948%, 26.41449%, 62.70752%)" offset="0.757812"/><stop stop-opacity="1" stop-color="rgb(56.544495%, 26.61438%, 63.024902%)" offset="0.761719"/><stop stop-opacity="1" stop-color="rgb(56.105042%, 26.815796%, 63.343811%)" offset="0.765625"/><stop stop-opacity="1" stop-color="rgb(55.664062%, 27.015686%, 63.66272%)" offset="0.769531"/><stop stop-opacity="1" stop-color="rgb(55.224609%, 27.215576%, 63.981628%)" offset="0.773438"/><stop stop-opacity="1" stop-color="rgb(54.785156%, 27.415466%, 64.299011%)" offset="0.777344"/><stop stop-opacity="1" stop-color="rgb(54.345703%, 27.616882%, 64.61792%)" offset="0.78125"/><stop stop-opacity="1" stop-color="rgb(53.90625%, 27.816772%, 64.936829%)" offset="0.785156"/><stop stop-opacity="1" stop-color="rgb(53.466797%, 28.016663%, 65.255737%)" offset="0.789062"/><stop stop-opacity="1" stop-color="rgb(53.027344%, 28.216553%, 65.57312%)" offset="0.792969"/><stop stop-opacity="1" stop-color="rgb(52.587891%, 28.417969%, 65.892029%)" offset="0.796875"/><stop stop-opacity="1" stop-color="rgb(52.148438%, 28.617859%, 66.209412%)" offset="0.800781"/><stop stop-opacity="1" stop-color="rgb(51.708984%, 28.817749%, 66.52832%)" offset="0.804688"/><stop stop-opacity="1" stop-color="rgb(51.269531%, 29.017639%, 66.847229%)" offset="0.808594"/><stop stop-opacity="1" stop-color="rgb(50.830078%, 29.219055%, 67.166138%)" offset="0.8125"/><stop stop-opacity="1" stop-color="rgb(50.389099%, 29.418945%, 67.483521%)" offset="0.816406"/><stop stop-opacity="1" stop-color="rgb(49.949646%, 29.618835%, 67.802429%)" offset="0.820313"/><stop stop-opacity="1" stop-color="rgb(49.510193%, 29.818726%, 68.119812%)" offset="0.824219"/><stop stop-opacity="1" stop-color="rgb(49.07074%, 30.018616%, 68.438721%)" offset="0.828125"/><stop stop-opacity="1" stop-color="rgb(48.631287%, 30.218506%, 68.757629%)" offset="0.832031"/><stop stop-opacity="1" stop-color="rgb(48.191833%, 30.419922%, 69.076538%)" offset="0.835938"/><stop stop-opacity="1" stop-color="rgb(47.75238%, 30.619812%, 69.393921%)" offset="0.839844"/><stop stop-opacity="1" stop-color="rgb(47.312927%, 30.819702%, 69.71283%)" offset="0.84375"/><stop stop-opacity="1" stop-color="rgb(46.873474%, 31.019592%, 70.030212%)" offset="0.847656"/><stop stop-opacity="1" stop-color="rgb(46.434021%, 31.221008%, 70.349121%)" offset="0.851563"/><stop stop-opacity="1" stop-color="rgb(45.993042%, 31.420898%, 70.66803%)" offset="0.855469"/><stop stop-opacity="1" stop-color="rgb(45.553589%, 31.620789%, 70.986938%)" offset="0.859375"/><stop stop-opacity="1" stop-color="rgb(45.114136%, 31.820679%, 71.304321%)" offset="0.863281"/><stop stop-opacity="1" stop-color="rgb(44.674683%, 32.022095%, 71.62323%)" offset="0.867188"/><stop stop-opacity="1" stop-color="rgb(44.235229%, 32.221985%, 71.942139%)" offset="0.871094"/><stop stop-opacity="1" stop-color="rgb(43.795776%, 32.421875%, 72.261047%)" offset="0.875"/><stop stop-opacity="1" stop-color="rgb(43.356323%, 32.621765%, 72.57843%)" offset="0.878906"/><stop stop-opacity="1" stop-color="rgb(42.91687%, 32.823181%, 72.897339%)" offset="0.882813"/><stop stop-opacity="1" stop-color="rgb(42.477417%, 33.023071%, 73.214722%)" offset="0.886719"/><stop stop-opacity="1" stop-color="rgb(42.037964%, 33.222961%, 73.53363%)" offset="0.890625"/><stop stop-opacity="1" stop-color="rgb(41.598511%, 33.422852%, 73.852539%)" offset="0.894531"/><stop stop-opacity="1" stop-color="rgb(41.159058%, 33.624268%, 74.171448%)" offset="0.898438"/><stop stop-opacity="1" stop-color="rgb(40.718079%, 33.824158%, 74.488831%)" offset="0.902344"/><stop stop-opacity="1" stop-color="rgb(40.278625%, 34.024048%, 74.807739%)" offset="0.90625"/><stop stop-opacity="1" stop-color="rgb(39.839172%, 34.223938%, 75.125122%)" offset="0.910156"/><stop stop-opacity="1" stop-color="rgb(39.399719%, 34.425354%, 75.444031%)" offset="0.914063"/><stop stop-opacity="1" stop-color="rgb(38.960266%, 34.625244%, 75.762939%)" offset="0.917969"/><stop stop-opacity="1" stop-color="rgb(38.520813%, 34.825134%, 76.081848%)" offset="0.921875"/><stop stop-opacity="1" stop-color="rgb(38.08136%, 35.025024%, 76.399231%)" offset="0.925781"/><stop stop-opacity="1" stop-color="rgb(37.641907%, 35.22644%, 76.71814%)" offset="0.929688"/><stop stop-opacity="1" stop-color="rgb(37.202454%, 35.426331%, 77.037048%)" offset="0.933594"/><stop stop-opacity="1" stop-color="rgb(36.763%, 35.626221%, 77.355957%)" offset="0.9375"/><stop stop-opacity="1" stop-color="rgb(36.322021%, 35.826111%, 77.67334%)" offset="0.941406"/><stop stop-opacity="1" stop-color="rgb(35.882568%, 36.027527%, 77.992249%)" offset="0.945312"/><stop stop-opacity="1" stop-color="rgb(35.443115%, 36.227417%, 78.309631%)" offset="0.949219"/><stop stop-opacity="1" stop-color="rgb(35.003662%, 36.427307%, 78.62854%)" offset="0.953125"/><stop stop-opacity="1" stop-color="rgb(34.564209%, 36.627197%, 78.947449%)" offset="0.957031"/><stop stop-opacity="1" stop-color="rgb(34.124756%, 36.828613%, 79.266357%)" offset="0.960938"/><stop stop-opacity="1" stop-color="rgb(33.685303%, 37.028503%, 79.58374%)" offset="0.964844"/><stop stop-opacity="1" stop-color="rgb(33.24585%, 37.228394%, 79.902649%)" offset="0.96875"/><stop stop-opacity="1" stop-color="rgb(32.806396%, 37.428284%, 80.220032%)" offset="0.972656"/><stop stop-opacity="1" stop-color="rgb(32.366943%, 37.6297%, 80.53894%)" offset="0.976562"/><stop stop-opacity="1" stop-color="rgb(31.92749%, 37.82959%, 80.857849%)" offset="0.980469"/><stop stop-opacity="1" stop-color="rgb(31.488037%, 38.02948%, 81.176758%)" offset="0.984375"/><stop stop-opacity="1" stop-color="rgb(31.047058%, 38.22937%, 81.494141%)" offset="0.988281"/><stop stop-opacity="1" stop-color="rgb(30.607605%, 38.430786%, 81.813049%)" offset="0.992188"/><stop stop-opacity="1" stop-color="rgb(30.203247%, 38.613892%, 82.106018%)" offset="0.996094"/><stop stop-opacity="1" stop-color="rgb(29.798889%, 38.798523%, 82.398987%)" offset="1"/></linearGradient></defs><g clip-path="url(#id1)"><g clip-path="url(#id2)"><path fill="url(#id3)" d="M 0.492188 0.335938 L 0.492188 36.972656 L 129.753906 36.972656 L 129.753906 0.335938 Z M 0.492188 0.335938 " fill-rule="nonzero"/></g></g></svg>